<svg aria-hidden="true" style="position: absolute; width: 0; height: 0; overflow: hidden;" version="1.1" xmlns="http://www.w3.org/2000/svg" xmlns:xlink="http://www.w3.org/1999/xlink">
    <defs>
        <symbol id="linkedin" viewBox="0 0 32 32">
            <path d="M31.992 32h0.008v-11.738c0-5.741-1.235-10.163-7.947-10.163-3.227 0-5.392 1.77-6.277 3.45h-0.093v-2.914h-6.365v21.363h6.627v-10.578c0-2.786 0.528-5.48 3.978-5.48 3.398 0 3.45 3.179 3.45 5.658v10.402h6.619zM0.528 10.635h6.635v21.365h-6.635v-21.365zM3.843 0c-2.123 0-3.843 1.721-3.843 3.843v0c0 2.12 1.722 3.878 3.843 3.878 2.12 0 3.842-1.757 3.842-3.878s-1.72-3.841-3.841-3.843h-0z"></path>
        </symbol>
        <symbol id="twitter" viewBox="0 0 32 32">
            <path d="M32 6.078c-1.1 0.493-2.376 0.857-3.713 1.028l-0.068 0.007c1.36-0.817 2.382-2.078 2.873-3.579l0.013-0.046c-1.197 0.722-2.591 1.273-4.076 1.573l-0.084 0.014c-1.2-1.279-2.9-2.076-4.787-2.076-3.622 0-6.558 2.936-6.558 6.558 0 0.001 0 0.003 0 0.004v-0c0 0.52 0.043 1.021 0.152 1.496-5.454-0.266-10.28-2.88-13.522-6.861-0.564 0.949-0.899 2.092-0.902 3.313v0.001c0 2.272 1.171 4.286 2.914 5.451-1.091-0.030-2.107-0.325-2.994-0.823l0.033 0.017v0.072c0.003 3.165 2.236 5.807 5.213 6.44l0.043 0.008c-0.499 0.136-1.071 0.215-1.662 0.215-0.020 0-0.041-0-0.061-0l0.003 0c-0.419 0-0.843-0.024-1.242-0.112 0.85 2.598 3.261 4.509 6.13 4.57-2.215 1.746-5.045 2.8-8.122 2.8-0.004 0-0.008 0-0.013 0h0.001c-0.018 0-0.040 0-0.062 0-0.531 0-1.055-0.034-1.569-0.099l0.061 0.006c2.826 1.846 6.287 2.944 10.004 2.944 0.021 0 0.042-0 0.063-0h-0.003c12.072 0 18.672-10 18.672-18.669 0-0.288-0.010-0.57-0.024-0.848 1.299-0.936 2.39-2.064 3.258-3.355l0.030-0.047z"></path>
        </symbol>
        <symbol id="facebook" viewBox="0 0 32 32">
            <path d="M21.328 5.312h2.923v-5.088c-1.232-0.143-2.66-0.224-4.107-0.224-0.052 0-0.104 0-0.157 0l0.008-0c-4.213 0-7.099 2.65-7.099 7.52v4.48h-4.646v5.688h4.646v14.312h5.698v-14.31h4.461l0.707-5.688h-5.168v-3.922c0-1.643 0.443-2.768 2.734-2.768z"></path>
        </symbol>
        <symbol id="instagram" viewBox="0 0 32 32">
            <path d="M31.968 9.408c-0.074-1.701-0.349-2.869-0.742-3.882-0.424-1.111-1.054-2.059-1.85-2.837l-0.001-0.001c-0.78-0.792-1.724-1.419-2.778-1.827l-0.054-0.018c-1.019-0.394-2.181-0.667-3.882-0.742-1.712-0.082-2.256-0.101-6.602-0.101-4.344 0-4.888 0.019-6.595 0.094-1.699 0.074-2.869 0.349-3.88 0.742-1.112 0.424-2.060 1.054-2.839 1.85l-0.001 0.001c-0.791 0.78-1.418 1.724-1.825 2.778l-0.018 0.054c-0.395 1.019-0.669 2.181-0.744 3.882-0.082 1.712-0.101 2.256-0.101 6.602 0 4.344 0.019 4.888 0.094 6.595 0.075 1.701 0.35 2.869 0.744 3.882 0.426 1.11 1.055 2.057 1.849 2.837l0.001 0.001c0.8 0.813 1.77 1.443 2.832 1.843 1.019 0.395 2.182 0.67 3.882 0.744 1.707 0.075 2.251 0.094 6.595 0.094 4.346 0 4.89-0.019 6.595-0.094 1.701-0.074 2.869-0.349 3.882-0.742 2.157-0.85 3.833-2.526 4.664-4.628l0.019-0.055c0.394-1.019 0.669-2.182 0.744-3.882 0.075-1.707 0.093-2.251 0.093-6.595s-0.006-4.888-0.080-6.595zM29.088 22.474c-0.070 1.563-0.333 2.406-0.55 2.97-0.552 1.399-1.64 2.486-3.004 3.024l-0.036 0.012c-0.56 0.219-1.411 0.482-2.968 0.55-1.688 0.075-2.194 0.094-6.464 0.094-4.269 0-4.782-0.019-6.464-0.094-1.563-0.069-2.406-0.331-2.97-0.55-0.721-0.269-1.334-0.676-1.836-1.192l-0.001-0.001c-0.517-0.503-0.924-1.117-1.184-1.803l-0.011-0.034c-0.218-0.563-0.48-1.413-0.549-2.97-0.075-1.688-0.094-2.195-0.094-6.464 0-4.27 0.019-4.784 0.094-6.464 0.069-1.563 0.331-2.406 0.549-2.97 0.269-0.722 0.678-1.337 1.198-1.837l0.002-0.002c0.504-0.517 1.119-0.923 1.806-1.182l0.034-0.011c0.56-0.219 1.411-0.48 2.968-0.55 1.688-0.074 2.195-0.093 6.464-0.093 4.275 0 4.782 0.019 6.464 0.093 1.563 0.069 2.406 0.331 2.97 0.55 0.693 0.256 1.325 0.662 1.837 1.194 0.531 0.52 0.938 1.144 1.195 1.84 0.218 0.56 0.48 1.411 0.549 2.968 0.075 1.688 0.094 2.194 0.094 6.464 0 4.269-0.019 4.768-0.094 6.458z"></path>
            <path d="M16.059 7.782c-4.539 0.002-8.218 3.682-8.219 8.221v0c0.091 4.471 3.737 8.060 8.221 8.060s8.13-3.589 8.221-8.052l0-0.009c-0.001-4.54-3.681-8.22-8.221-8.221h-0zM16.059 21.334c-2.945-0-5.332-2.388-5.332-5.333s2.388-5.333 5.333-5.333c0 0 0.001 0 0.001 0h-0c2.946 0 5.334 2.388 5.334 5.334s-2.388 5.334-5.334 5.334v0zM26.525 7.458c0 1.060-0.86 1.92-1.92 1.92s-1.92-0.86-1.92-1.92v0c0-1.060 0.86-1.92 1.92-1.92s1.92 0.86 1.92 1.92v0z"></path>
        </symbol>
        <symbol id="close" viewBox="0 0 32 32">
            <path d="M23.734 10.304l-1.504-1.504-5.963 5.962-5.962-5.962-1.504 1.504 5.962 5.962-5.962 5.963 1.504 1.504 5.962-5.963 5.963 5.963 1.504-1.504-5.963-5.963 5.963-5.962z"></path>
        </symbol>
        <symbol id="burger" viewBox="0 0 32 32">
            <path d="M6.4 11.734v-2.134h19.2v2.134h-19.2zM6.4 17.066h19.2v-2.133h-19.2v2.133zM6.4 22.4h19.2v-2.134h-19.2v2.134z"></path>
        </symbol>
        <symbol id="mail" viewBox="0 0 32 32">
            <path fill="none" stroke="#9da4bd" style="stroke: var(--color2, #9da4bd)" stroke-linejoin="round" stroke-linecap="round" stroke-miterlimit="4" stroke-width="1.3333" d="M6.4 6.667h19.2c1.32 0 2.4 1.049 2.4 2.333v14c0 1.283-1.080 2.333-2.4 2.333h-19.2c-1.32 0-2.4-1.051-2.4-2.333v-14c0-1.284 1.080-2.333 2.4-2.333z"></path>
            <path fill="none" stroke="#9da4bd" style="stroke: var(--color2, #9da4bd)" stroke-linejoin="round" stroke-linecap="round" stroke-miterlimit="4" stroke-width="1.3333" d="M26.667 9.333l-10.667 8-10.667-8"></path>
        </symbol>
        <symbol id="phone" viewBox="0 0 32 32">
            <path fill="none" stroke="#9da4bd" style="stroke: var(--color2, #9da4bd)" stroke-linejoin="round" stroke-linecap="round" stroke-miterlimit="4" stroke-width="1.3333" d="M26.667 21.337v3.217c0 0.003 0 0.006 0 0.009 0 1.186-0.961 2.147-2.147 2.147-0.068 0-0.134-0.003-0.2-0.009l0.008 0.001c-3.481-0.388-6.626-1.563-9.338-3.343l0.081 0.050c-2.608-1.675-4.761-3.828-6.386-6.353l-0.050-0.083c-1.736-2.644-2.912-5.804-3.285-9.205l-0.008-0.095c-0.006-0.058-0.009-0.125-0.009-0.193 0-1.185 0.96-2.145 2.145-2.145h3.219c0.006-0 0.013-0 0.020-0 1.079 0 1.972 0.797 2.123 1.834l0.001 0.012c0.136 1.029 0.387 2.040 0.751 3.013 0.295 0.784 0.107 1.668-0.483 2.264l-1.363 1.361c1.555 2.7 3.736 4.881 6.353 6.392l0.083 0.044 1.363-1.361c0.388-0.383 0.92-0.619 1.509-0.619 0.271 0 0.53 0.050 0.769 0.142l-0.015-0.005c0.973 0.363 1.984 0.613 3.013 0.751 1.050 0.151 1.847 1.045 1.847 2.125 0 0.019-0 0.037-0.001 0.056l0-0.003z"></path>
        </symbol>
        <symbol id="map-pin" viewBox="0 0 32 32">
            <path fill="none" stroke="#9da4bd" style="stroke: var(--color2, #9da4bd)" stroke-linejoin="round" stroke-linecap="round" stroke-miterlimit="4" stroke-width="1.3333" d="M26.667 13.819c0 7.635-10.667 14.181-10.667 14.181s-10.667-6.547-10.667-14.181c0-5.423 4.776-9.819 10.667-9.819s10.667 4.396 10.667 9.819v0z"></path>
            <path fill="none" stroke="#9da4bd" style="stroke: var(--color2, #9da4bd)" stroke-linejoin="round" stroke-linecap="round" stroke-miterlimit="4" stroke-width="1.3333" d="M16 18.667c2.209 0 4-1.791 4-4s-1.791-4-4-4v0c-2.209 0-4 1.791-4 4s1.791 4 4 4v0z"></path>
        </symbol>
        <symbol id="logo" viewBox="0 0 37 32">
            <path d="M21.096 9.734l-0.706-0.577c-0.090-0.080-0.209-0.128-0.34-0.128-0.169 0-0.32 0.082-0.413 0.208l-0.001 0.001-9.77 12.013 0.151 0.179 2.419-2.389c-0.083-0.037-0.148-0.1-0.188-0.179l-0.001-0.002c-0.028-0.055-0.045-0.12-0.045-0.189 0-0.028 0.003-0.055 0.008-0.082l-0 0.003c0.018-0.093 0.065-0.172 0.131-0.23l0-0c0.062-0.055 0.145-0.089 0.235-0.089 0.084 0 0.161 0.029 0.222 0.078l-0.001-0.001c0.063 0.050 0.11 0.12 0.133 0.201l3.19-3.167c0.046-0.040 0.106-0.065 0.172-0.065h0c0.063 0 0.123 0.023 0.173 0.065l0.161 0.127c0.043 0.034 0.098 0.054 0.158 0.054 0.083 0 0.156-0.039 0.203-0.1l0-0.001 4.171-5.008c0.043-0.049 0.077-0.107 0.098-0.171l0.001-0.003c0.015-0.047 0.024-0.1 0.024-0.156 0-0.088-0.022-0.171-0.062-0.243l0.001 0.003c-0.032-0.060-0.075-0.11-0.127-0.15l-0.001-0.001z"></path>
            <path d="M25.687 13.115c-2.138 1.629-4.533 2.831-7.070 3.549-2.265 0.644-4.894 1.081-7.603 1.219l-0.086 0.003c0.052 0.41 0.146 0.813 0.28 1.201 1.466 1.419 12.501-1.004 14.657-3.808 0.457-0.583-0.178-2.164-0.178-2.164zM12.583 19.041c-0.076-0-0.147-0.025-0.204-0.066l0.001 0.001c-0.061-0.044-0.107-0.104-0.135-0.174l-0.001-0.003c-0.018-0.044-0.028-0.096-0.028-0.15 0-0.027 0.003-0.054 0.008-0.079l-0 0.003c0.014-0.078 0.050-0.147 0.1-0.201l-0 0c0.049-0.053 0.113-0.091 0.186-0.107l0.002-0c0.021-0.005 0.046-0.007 0.071-0.007 0.051 0 0.099 0.011 0.143 0.031l-0.002-0.001c0.067 0.029 0.124 0.080 0.165 0.144s0.062 0.141 0.062 0.218c0 0.002 0 0.004 0 0.006 0 0.052-0.010 0.102-0.027 0.148l0.001-0.003c-0.019 0.050-0.046 0.092-0.080 0.128l0-0c-0.033 0.036-0.073 0.064-0.118 0.084l-0.002 0.001c-0.040 0.018-0.087 0.029-0.136 0.029-0.001 0-0.003 0-0.004-0h0zM2.156 12.284l0.086-0.398 1.401 0.341c0.116 0.229 0.187 0.48 0.21 0.739 0.027 0.274 0.010 0.551-0.049 0.819-0.073 0.386-0.236 0.726-0.466 1.008l0.003-0.004c-0.223 0.27-0.51 0.469-0.83 0.577-0.173 0.059-0.372 0.093-0.579 0.093-0.156 0-0.308-0.019-0.452-0.056l0.013 0.003c-0.355-0.085-0.661-0.263-0.9-0.507l-0-0c-0.243-0.242-0.422-0.549-0.509-0.892l-0.003-0.013c-0.046-0.173-0.073-0.372-0.073-0.577s0.026-0.404 0.076-0.593l-0.004 0.016c0.058-0.282 0.162-0.552 0.307-0.796 0.137-0.222 0.322-0.406 0.539-0.537l0.194 0.317c-0.189 0.126-0.346 0.286-0.465 0.472l-0.004 0.006c-0.122 0.193-0.206 0.411-0.243 0.641-0.030 0.126-0.046 0.271-0.046 0.42 0 0.173 0.023 0.34 0.066 0.5l-0.003-0.013c0.073 0.28 0.216 0.534 0.415 0.733 0.205 0.211 0.46 0.358 0.738 0.421 0.27 0.081 0.554 0.081 0.825 0 0.258-0.091 0.49-0.252 0.673-0.467 0.189-0.232 0.318-0.512 0.377-0.814 0.034-0.134 0.053-0.287 0.053-0.445 0-0.236-0.043-0.461-0.122-0.67l0.004 0.013-1.234-0.335zM5.206 8.655l-1.256 1.794 0.539 1.033-0.248 0.358-1.994-3.895 0.232-0.341 4.057 0.935-0.253 0.358-1.078-0.242zM4.85 8.562l-2.155-0.519 1.077 2.071 1.078-1.552zM4.85 4.933l0.323-0.259 2.053 2.943 1.692-1.356 0.205 0.294-2.010 1.61-2.263-3.231zM8.245 2.527l0.361-0.173 1.423 3.335 1.923-0.935 0.141 0.335-2.285 1.114-1.562-3.675zM15.346 3.854l0.081 0.363-2.598 0.652-0.862-3.935 2.522-0.629 0.075 0.357-2.155 0.537 0.307 1.396 1.897-0.479 0.081 0.358-1.902 0.473 0.323 1.459 2.231-0.554zM19.048 3.999l-0.899-1.27c-0.101 0.006-0.201 0.006-0.302 0l-1.013 0.034 0.038 1.281h-0.399l-0.124-4.039 1.434-0.006c0.405-0.040 0.81 0.077 1.142 0.329 0.139 0.12 0.252 0.273 0.329 0.447s0.115 0.364 0.113 0.557c0.001 0.024 0.002 0.052 0.002 0.080 0 0.269-0.075 0.52-0.205 0.733l0.004-0.006c-0.15 0.224-0.364 0.395-0.616 0.487l-0.009 0.003 0.943 1.35-0.437 0.017zM18.671 2.101c0.097-0.095 0.172-0.213 0.22-0.344s0.066-0.272 0.055-0.412c0-0.006 0-0.013 0-0.020 0-0.14-0.029-0.274-0.082-0.395l0.002 0.006c-0.056-0.13-0.137-0.241-0.237-0.329l-0.001-0.001c-0.203-0.151-0.459-0.241-0.737-0.241-0.038 0-0.076 0.002-0.114 0.005l0.005-0-1.024 0.041 0.065 2.019 1.002-0.034c0.013 0.001 0.028 0.001 0.044 0.001 0.307 0 0.587-0.112 0.804-0.296l-0.002 0.001zM21.899 2.926l-0.194 1.379-0.393-0.063 0.199-1.356-1.115-2.885 0.421 0.069 0.954 2.458 1.617-2.037 0.377 0.087-1.865 2.349zM27.229 2.683l0.469 0.652-0.205 0.173-0.469-0.669-0.297 0.756-0.226-0.104 0.302-0.756-0.776 0.11v-0.277l0.766-0.092-0.474-0.652 0.21-0.173 0.415 0.657 0.291-0.761 0.231 0.104-0.274 0.773 0.775-0.115v0.283l-0.738 0.092zM29.028 7.334c-0.123-0.2-0.205-0.437-0.231-0.691l-0.001-0.007 0.318-0.15c0.024 0.229 0.094 0.449 0.205 0.646 0.12 0.221 0.277 0.417 0.463 0.577 0.193 0.197 0.438 0.324 0.701 0.363 0.016 0.002 0.034 0.003 0.053 0.003 0.082 0 0.159-0.018 0.229-0.050l-0.003 0.001c0.089-0.039 0.166-0.101 0.227-0.179 0.043-0.051 0.078-0.112 0.099-0.179l0.001-0.004c0.016-0.050 0.026-0.107 0.026-0.167 0-0.015-0.001-0.030-0.002-0.045l0 0.002c-0.019-0.149-0.065-0.283-0.132-0.404l0.003 0.006c-0.102-0.177-0.211-0.349-0.329-0.514-0.131-0.181-0.259-0.389-0.374-0.605l-0.014-0.029c-0.085-0.157-0.136-0.344-0.141-0.542l-0-0.001c0-0.214 0.075-0.419 0.21-0.577 0.118-0.152 0.273-0.266 0.447-0.329 0.089-0.029 0.192-0.045 0.299-0.045s0.21 0.017 0.306 0.047l-0.007-0.002c0.251 0.088 0.484 0.23 0.684 0.415 0.166 0.148 0.313 0.319 0.437 0.508 0.114 0.175 0.2 0.37 0.253 0.577l-0.307 0.173c-0.058-0.206-0.139-0.386-0.242-0.551l0.005 0.009c-0.105-0.151-0.224-0.282-0.358-0.395l-0.003-0.002c-0.179-0.188-0.42-0.316-0.689-0.351l-0.006-0.001c-0.015-0.001-0.031-0.002-0.048-0.002-0.084 0-0.165 0.019-0.236 0.053l0.003-0.001c-0.088 0.041-0.166 0.105-0.225 0.187-0.045 0.051-0.079 0.111-0.101 0.178l-0.001 0.004c-0.016 0.048-0.025 0.103-0.025 0.16 0 0.018 0.001 0.036 0.003 0.054l-0-0.002c0.013 0.145 0.057 0.286 0.129 0.409 0.075 0.133 0.183 0.306 0.329 0.514 0.144 0.197 0.274 0.405 0.388 0.623 0.089 0.166 0.139 0.351 0.145 0.543 0 0.214-0.074 0.419-0.21 0.577-0.118 0.154-0.275 0.269-0.453 0.329-0.195 0.063-0.403 0.063-0.598 0-0.268-0.095-0.497-0.237-0.691-0.417l0.001 0.001c-0.218-0.203-0.4-0.445-0.539-0.715zM34.449 8.176l-0.76-1.154 0.28-0.213 1.752 2.677-0.28 0.214-0.76-1.154-2.813 2.106-0.226-0.352 2.807-2.123zM33.242 12.919c0.096-0.349 0.283-0.661 0.539-0.9 0.25-0.24 0.555-0.406 0.883-0.479 0.131-0.034 0.282-0.053 0.437-0.053 0.206 0 0.404 0.034 0.589 0.097l-0.013-0.004c0.331 0.121 0.609 0.319 0.822 0.574l0.002 0.003c0.232 0.286 0.39 0.632 0.458 1.004 0.043 0.167 0.067 0.359 0.067 0.557s-0.024 0.39-0.070 0.573l0.003-0.016c-0.102 0.356-0.289 0.66-0.538 0.899l-0.001 0.001c-0.257 0.246-0.569 0.417-0.906 0.496s-0.687 0.063-1.017-0.046c-0.333-0.115-0.613-0.315-0.822-0.574l-0.003-0.003c-0.225-0.277-0.386-0.615-0.456-0.984l-0.002-0.014c-0.035-0.153-0.056-0.33-0.056-0.511 0-0.221 0.030-0.434 0.086-0.637l-0.004 0.017zM33.947 14.753c0.18 0.22 0.413 0.382 0.674 0.468 0.269 0.083 0.552 0.093 0.825 0.029 0.288-0.070 0.537-0.209 0.738-0.399l-0.001 0.001c0.199-0.196 0.346-0.445 0.426-0.722 0.075-0.291 0.083-0.599 0.022-0.894-0.064-0.308-0.194-0.578-0.374-0.806l0.003 0.004c-0.181-0.213-0.416-0.375-0.685-0.464l-0.011-0.003c-0.124-0.037-0.267-0.058-0.415-0.058s-0.291 0.021-0.426 0.061l0.011-0.003c-0.274 0.057-0.529 0.194-0.733 0.398-0.198 0.195-0.345 0.441-0.423 0.715l-0.003 0.011c-0.035 0.134-0.055 0.288-0.055 0.447s0.020 0.313 0.058 0.46l-0.003-0.013c0.059 0.286 0.187 0.551 0.372 0.767zM32.832 19.618l1.395-0.577c0-0.103 0.033-0.207 0.059-0.317l0.264-1.045-1.142-0.317 0.103-0.41 3.642 1.045-0.366 1.459c-0.083 0.433-0.308 0.804-0.622 1.071l-0.003 0.002c-0.138 0.105-0.306 0.179-0.488 0.209l-0.007 0.001c-0.051 0.008-0.11 0.013-0.169 0.013-0.129 0-0.253-0.022-0.368-0.064l0.008 0.002c-0.272-0.067-0.5-0.222-0.658-0.432l-0.002-0.003c-0.162-0.215-0.26-0.487-0.261-0.782v-0l-1.487 0.577 0.103-0.433zM34.638 19.779c0.063 0.122 0.149 0.23 0.251 0.317s0.221 0.149 0.347 0.185c0.075 0.023 0.162 0.036 0.252 0.036 0.187 0 0.36-0.056 0.505-0.153l-0.003 0.002c0.238-0.205 0.4-0.493 0.458-0.813l0.258-1.039-1.827-0.525-0.258 1.039c-0.045 0.135-0.071 0.291-0.071 0.452 0 0.179 0.032 0.351 0.090 0.51l-0.003-0.010zM30.897 23.334l-0.274-0.225 1.617-2.279 3.007 2.441-1.563 2.21-0.274-0.225 1.32-1.863-1.078-0.871-1.18 1.667-0.269-0.219 1.207-1.667-1.115-0.906-1.395 1.939zM29.637 27.932l-0.77 0.046v-0.277l0.77-0.006-0.415-0.687 0.21-0.145 0.41 0.693 0.334-0.773 0.232 0.133-0.367 0.727 0.771-0.046v0.283h-0.781l0.415 0.686-0.21 0.145-0.41-0.693-0.355 0.75-0.226-0.139 0.393-0.698zM22.631 27.471l0.652 0.386c0.11-0.225 0.262-0.422 0.448-0.579s0.4-0.27 0.63-0.332c0.214-0.072 0.44-0.097 0.663-0.075 0.194 0.016 0.38 0.088 0.539 0.208 0.143 0.117 0.248 0.275 0.3 0.455l0.002 0.006c0.065 0.227 0.054 0.473-0.032 0.692-0.141 0.309-0.322 0.574-0.54 0.803l0.001-0.001c0.177 0.102 0.342 0.229 0.49 0.375 0.102 0.113 0.177 0.249 0.221 0.398 0.028 0.117 0.030 0.238 0.006 0.355s-0.074 0.227-0.146 0.32c-0.138 0.215-0.349 0.373-0.596 0.442l-0.007 0.002c-0.099 0.042-0.214 0.066-0.334 0.066s-0.235-0.024-0.34-0.068l0.006 0.002c-0.099-0.047-0.182-0.113-0.246-0.195l-0.001-0.001c-0.065-0.082-0.114-0.181-0.139-0.289l-0.001-0.005c-0.022-0.071-0.034-0.153-0.034-0.237 0-0.123 0.027-0.24 0.074-0.345l-0.002 0.005c0.123-0.263 0.286-0.502 0.48-0.71l-1.299-0.773c-0.030 0.159-0.048 0.341-0.048 0.527 0 0.105 0.006 0.209 0.016 0.311l-0.001-0.013h-0.329c-0.004-0.058-0.006-0.125-0.006-0.194 0-0.289 0.042-0.568 0.119-0.831l-0.005 0.021-0.679-0.404 0.14-0.323zM23.569 28.048l1.429 0.848c0.187-0.191 0.342-0.416 0.457-0.664 0.028-0.077 0.044-0.166 0.044-0.259s-0.016-0.182-0.046-0.265l0.002 0.005c-0.025-0.104-0.073-0.193-0.138-0.268l0.001 0.001c-0.064-0.073-0.144-0.13-0.236-0.164l-0.004-0.001c-0.103-0.038-0.221-0.061-0.345-0.061s-0.242 0.022-0.352 0.063l0.007-0.002c-0.183 0.051-0.353 0.146-0.498 0.275s-0.26 0.288-0.339 0.466l-0.003 0.009 0.022 0.017zM25.595 30.355c0.043-0.076 0.068-0.167 0.068-0.264 0-0.058-0.009-0.115-0.026-0.167l0.001 0.004c-0.034-0.117-0.094-0.218-0.172-0.3l0 0c-0.131-0.119-0.277-0.224-0.436-0.311l-0.012-0.006c-0.159 0.169-0.3 0.358-0.418 0.563l-0.008 0.015c-0.065 0.131-0.081 0.283-0.043 0.426 0.018 0.069 0.048 0.13 0.089 0.182l-0.001-0.001c0.041 0.053 0.091 0.095 0.149 0.126 0.137 0.055 0.289 0.055 0.426 0 0.147-0.042 0.274-0.138 0.361-0.271l0.022 0.006zM16.063 31.919l0.075-4.039h0.383l-0.059 3.231 1.53-2.689h0.189l1.434 2.735 0.054-3.214h0.383l-0.070 4.039h-0.329l-1.585-3.018-1.675 2.96-0.329-0.006zM14.188 27.695c0.246 0.251 0.423 0.571 0.509 0.924s0.080 0.724-0.019 1.073c-0.092 0.368-0.27 0.685-0.513 0.942l0.001-0.001c-0.24 0.252-0.54 0.428-0.867 0.507-0.138 0.035-0.297 0.055-0.461 0.055-0.209 0-0.41-0.033-0.598-0.093l0.014 0.004c-0.357-0.097-0.662-0.279-0.905-0.525l-0-0c-0.238-0.246-0.413-0.554-0.498-0.898l-0.003-0.014c-0.037-0.153-0.058-0.329-0.058-0.51 0-0.207 0.028-0.407 0.079-0.598l-0.004 0.016c0.095-0.357 0.274-0.68 0.521-0.939 0.235-0.251 0.53-0.431 0.851-0.519 0.138-0.035 0.296-0.055 0.458-0.055 0.208 0 0.408 0.033 0.595 0.093l-0.014-0.004c0.343 0.093 0.657 0.28 0.911 0.543zM12.35 27.494c-0.277 0.072-0.513 0.217-0.694 0.414l-0.001 0.001c-0.199 0.211-0.34 0.477-0.41 0.767-0.036 0.132-0.056 0.285-0.056 0.441s0.021 0.309 0.059 0.454l-0.003-0.012c0.063 0.281 0.2 0.537 0.394 0.738 0.203 0.213 0.453 0.366 0.727 0.445 0.274 0.074 0.561 0.074 0.835 0 0.277-0.076 0.514-0.22 0.7-0.415l0.001-0.001c0.198-0.213 0.339-0.478 0.41-0.767 0.036-0.133 0.056-0.286 0.056-0.444s-0.021-0.311-0.059-0.457l0.003 0.012c-0.071-0.288-0.21-0.538-0.4-0.74l0.001 0.001c-0.195-0.205-0.443-0.357-0.722-0.436l-0.011-0.003c-0.124-0.038-0.267-0.060-0.415-0.060s-0.291 0.022-0.425 0.063l0.010-0.003zM8.271 24.811l0.145 1.586c0.093 0.042 0.183 0.091 0.27 0.145l0.878 0.542 0.593-1.119 0.35 0.214-1.886 3.479-1.229-0.755c-0.368-0.205-0.652-0.525-0.804-0.911l-0.004-0.012c-0.041-0.124-0.065-0.267-0.065-0.415 0-0.251 0.068-0.486 0.187-0.688l-0.003 0.006c0.125-0.253 0.323-0.455 0.566-0.577 0.246-0.109 0.518-0.131 0.776-0.063l-0.157-1.697 0.383 0.266zM7.657 26.634c-0.127 0.034-0.246 0.095-0.35 0.179-0.104 0.085-0.19 0.189-0.253 0.306l-0.003 0.005c-0.081 0.15-0.128 0.328-0.128 0.518 0 0.103 0.014 0.203 0.040 0.298l-0.002-0.008c0.126 0.299 0.346 0.541 0.62 0.687l0.867 0.537 0.943-1.731-0.867-0.536c-0.217-0.177-0.496-0.285-0.801-0.285-0.023 0-0.046 0.001-0.069 0.002l0.003-0v0.029zM5.081 22.105l0.243-0.26 1.859 2.049-2.694 2.816-1.794-1.985 0.248-0.259 1.525 1.679 0.922-0.998-1.337-1.488 0.259-0.265 1.364 1.499 1.002-1.045-1.595-1.743zM1.077 19.837l0.129-0.797 0.254 0.041-0.146 0.819 0.717-0.283 0.086 0.254-0.727 0.266 0.598 0.542-0.173 0.208-0.577-0.577-0.134 0.819-0.258-0.052 0.151-0.819-0.722 0.277-0.081-0.225 0.722-0.271-0.598-0.537 0.178-0.207 0.582 0.542z"></path>
        </symbol>
        <symbol id="logo-mob" viewBox="0 0 39 32">
            <path d="M22.394 9.734l-0.75-0.577c-0.097-0.080-0.223-0.128-0.36-0.128-0.177 0-0.336 0.081-0.44 0.208l-0.001 0.001-10.37 12.013 0.16 0.179 2.568-2.389c-0.146-0.062-0.246-0.204-0.246-0.37 0-0.125 0.057-0.236 0.146-0.309l0.001-0.001c0.067-0.055 0.153-0.088 0.248-0.088 0.002 0 0.005 0 0.007 0h-0c0 0 0 0 0 0 0.175 0 0.322 0.116 0.37 0.274l0.001 0.003 3.386-3.167c0.050-0.040 0.113-0.065 0.183-0.065s0.134 0.025 0.184 0.065l-0.001-0 0.171 0.127c0.046 0.034 0.104 0.054 0.167 0.054 0.087 0 0.164-0.039 0.216-0.1l0-0 4.427-5.008c0.082-0.086 0.132-0.202 0.132-0.331 0-0.089-0.024-0.172-0.066-0.243l0.001 0.002c-0.035-0.060-0.081-0.11-0.135-0.149l-0.001-0.001z"></path>
            <path d="M27.267 13.115c-2.14 1.554-4.643 2.772-7.343 3.511l-0.162 0.038c-2.404 0.644-5.198 1.082-8.071 1.219l-0.092 0.003c0.056 0.41 0.155 0.813 0.298 1.201 1.556 1.419 13.271-1.004 15.559-3.808 0.486-0.583-0.189-2.164-0.189-2.164zM13.357 19.041c-0 0-0.001 0-0.001 0-0.161 0-0.3-0.099-0.358-0.239l-0.001-0.003c-0.019-0.044-0.029-0.096-0.029-0.15 0-0.108 0.044-0.207 0.114-0.278l-0 0c0.070-0.071 0.168-0.114 0.275-0.114 0.215 0 0.389 0.174 0.389 0.389 0 0.001 0 0.003-0 0.004v-0c0 0.001 0 0.003 0 0.005 0 0.161-0.097 0.299-0.236 0.358l-0.003 0.001c-0.043 0.018-0.092 0.029-0.145 0.029-0.002 0-0.004 0-0.005-0h0zM2.288 12.284l0.091-0.398 1.487 0.341c0.123 0.229 0.198 0.48 0.223 0.739 0.029 0.274 0.011 0.551-0.051 0.819-0.079 0.389-0.252 0.729-0.494 1.007l0.002-0.003c-0.231 0.263-0.529 0.463-0.867 0.573l-0.014 0.004c-0.184 0.059-0.395 0.093-0.614 0.093-0.165 0-0.326-0.019-0.481-0.056l0.014 0.003c-0.374-0.083-0.698-0.262-0.956-0.508l0.001 0.001c-0.256-0.239-0.445-0.546-0.54-0.892l-0.003-0.013c-0.049-0.173-0.077-0.372-0.077-0.577s0.028-0.404 0.081-0.593l-0.004 0.015c0.061-0.282 0.171-0.552 0.326-0.796 0.146-0.222 0.342-0.406 0.571-0.537l0.206 0.317c-0.393 0.246-0.671 0.644-0.753 1.11l-0.001 0.010c-0.031 0.126-0.049 0.271-0.049 0.42 0 0.173 0.024 0.34 0.069 0.499l-0.003-0.013c0.077 0.28 0.229 0.534 0.44 0.733 0.217 0.211 0.489 0.358 0.784 0.421 0.286 0.081 0.589 0.081 0.875 0 0.274-0.091 0.52-0.252 0.714-0.467 0.2-0.232 0.338-0.512 0.401-0.814 0.036-0.134 0.056-0.287 0.056-0.445 0-0.236-0.046-0.462-0.129-0.668l0.004 0.012-1.31-0.335zM5.526 8.655l-1.333 1.794 0.572 1.033-0.263 0.358-2.117-3.895 0.246-0.341 4.307 0.935-0.269 0.358-1.144-0.242zM5.149 8.562l-2.289-0.519 1.144 2.071 1.144-1.552zM5.149 4.933l0.343-0.259 2.179 2.943 1.796-1.356 0.217 0.294-2.134 1.61-2.402-3.231zM8.752 2.527l0.383-0.173 1.51 3.335 2.042-0.935 0.149 0.335-2.425 1.114-1.658-3.675zM16.291 3.854l0.086 0.363-2.757 0.652-0.915-3.935 2.677-0.629 0.080 0.357-2.288 0.537 0.326 1.396 2.014-0.479 0.086 0.358-2.019 0.473 0.343 1.459 2.369-0.554zM20.221 3.999l-0.955-1.27c-0.106 0.006-0.214 0.006-0.32 0l-1.075 0.034 0.040 1.281h-0.423l-0.133-4.039 1.522-0.006c0.050-0.005 0.107-0.008 0.166-0.008 0.393 0 0.757 0.126 1.052 0.34l-0.005-0.004c0.287 0.234 0.469 0.588 0.469 0.984 0 0.007-0 0.014-0 0.021v-0.001c0.017 0.285-0.057 0.568-0.211 0.807-0.163 0.226-0.39 0.397-0.654 0.487l-0.009 0.003 1.001 1.35-0.463 0.017zM19.821 2.101c0.182-0.168 0.295-0.408 0.295-0.674 0-0.029-0.001-0.057-0.004-0.085l0 0.004c0-0.006 0-0.013 0-0.019 0-0.289-0.131-0.547-0.336-0.718l-0.001-0.001c-0.218-0.151-0.489-0.242-0.78-0.242-0.042 0-0.083 0.002-0.123 0.005l0.005-0-1.087 0.041 0.069 2.019 1.064-0.034c0.015 0.001 0.032 0.001 0.050 0.001 0.322 0 0.617-0.111 0.851-0.297l-0.003 0.002zM23.246 2.926l-0.206 1.379-0.417-0.063 0.211-1.356-1.185-2.885 0.446 0.069 1.013 2.458 1.716-2.037 0.4 0.087-1.979 2.349zM28.903 2.683l0.498 0.652-0.217 0.173-0.498-0.669-0.314 0.756-0.241-0.104 0.32-0.756-0.823 0.11v-0.277l0.812-0.092-0.503-0.652 0.223-0.173 0.44 0.657 0.309-0.761 0.246 0.104-0.291 0.773 0.824-0.115v0.283l-0.784 0.092zM30.814 7.334c-0.129-0.199-0.217-0.436-0.245-0.691l-0.001-0.007 0.337-0.15c0.025 0.229 0.099 0.449 0.217 0.646 0.128 0.221 0.295 0.417 0.492 0.577 0.204 0.197 0.464 0.324 0.743 0.363 0.017 0.002 0.038 0.003 0.058 0.003 0.193 0 0.365-0.088 0.479-0.227l0.001-0.001c0.083-0.092 0.133-0.214 0.133-0.348 0-0.016-0.001-0.031-0.002-0.046l0 0.002c-0.020-0.149-0.069-0.284-0.14-0.403l0.003 0.005c-0.107-0.177-0.224-0.349-0.349-0.514-0.141-0.184-0.277-0.391-0.398-0.608l-0.014-0.027c-0.089-0.156-0.144-0.343-0.149-0.542l-0-0.001c0-0.214 0.079-0.419 0.223-0.577 0.125-0.152 0.289-0.266 0.475-0.329 0.095-0.029 0.204-0.045 0.317-0.045s0.222 0.017 0.325 0.047l-0.008-0.002c0.267 0.088 0.514 0.23 0.726 0.415 0.177 0.148 0.332 0.319 0.463 0.508 0.122 0.175 0.213 0.37 0.269 0.577l-0.326 0.173c-0.062-0.206-0.148-0.386-0.256-0.55l0.005 0.008c-0.112-0.151-0.238-0.282-0.379-0.394l-0.004-0.003c-0.194-0.189-0.448-0.317-0.732-0.351l-0.006-0.001c-0.016-0.001-0.034-0.002-0.052-0.002-0.197 0-0.372 0.093-0.485 0.237l-0.001 0.001c-0.083 0.089-0.134 0.208-0.134 0.34 0 0.018 0.001 0.037 0.003 0.054l-0-0.002c0.013 0.146 0.060 0.286 0.137 0.41 0.080 0.133 0.194 0.306 0.349 0.514 0.153 0.197 0.291 0.405 0.412 0.623 0.095 0.166 0.149 0.351 0.154 0.543 0.001 0.214-0.079 0.419-0.223 0.577-0.123 0.151-0.286 0.265-0.473 0.327l-0.007 0.002c-0.207 0.063-0.429 0.063-0.635 0-0.283-0.094-0.526-0.236-0.734-0.418l0.002 0.002c-0.228-0.201-0.419-0.437-0.565-0.702l-0.007-0.013zM36.569 8.176l-0.806-1.154 0.297-0.213 1.859 2.677-0.297 0.214-0.807-1.154-2.986 2.106-0.24-0.352 2.98-2.123zM35.287 12.919c0.107-0.36 0.306-0.665 0.569-0.898l0.002-0.002c0.256-0.232 0.573-0.4 0.925-0.476l0.013-0.002c0.139-0.034 0.299-0.053 0.464-0.053 0.218 0 0.429 0.034 0.626 0.097l-0.015-0.004c0.348 0.118 0.643 0.317 0.874 0.575l0.002 0.002c0.238 0.275 0.409 0.615 0.483 0.99l0.002 0.014c0.045 0.167 0.071 0.359 0.071 0.557s-0.026 0.39-0.075 0.572l0.004-0.015c-0.11 0.359-0.308 0.663-0.57 0.898l-0.002 0.002c-0.372 0.339-0.869 0.546-1.414 0.546-0.224 0-0.44-0.035-0.643-0.1l0.015 0.004c-0.351-0.113-0.647-0.313-0.873-0.575l-0.002-0.002c-0.237-0.274-0.408-0.612-0.483-0.984l-0.002-0.014c-0.038-0.153-0.059-0.33-0.059-0.511 0-0.221 0.032-0.434 0.092-0.636l-0.004 0.016zM36.037 14.753c0.187 0.215 0.429 0.377 0.704 0.465l0.011 0.003c0.148 0.045 0.319 0.071 0.495 0.071 0.447 0 0.855-0.167 1.166-0.442l-0.002 0.002c0.211-0.196 0.367-0.445 0.452-0.722 0.042-0.148 0.066-0.318 0.066-0.493 0-0.459-0.165-0.88-0.44-1.206l0.002 0.003c-0.195-0.215-0.444-0.377-0.727-0.464l-0.012-0.003c-0.132-0.037-0.284-0.058-0.441-0.058s-0.308 0.021-0.453 0.061l0.012-0.003c-0.291 0.057-0.561 0.194-0.777 0.398-0.208 0.193-0.365 0.438-0.45 0.715l-0.003 0.011c-0.037 0.134-0.058 0.288-0.058 0.447s0.021 0.313 0.061 0.459l-0.003-0.012c0.063 0.286 0.199 0.551 0.395 0.767zM34.853 19.618l1.482-0.577c0-0.103 0.034-0.207 0.063-0.317l0.28-1.045-1.213-0.317 0.109-0.41 3.867 1.045-0.389 1.459c-0.092 0.438-0.33 0.81-0.66 1.070l-0.004 0.003c-0.197 0.139-0.441 0.222-0.705 0.222-0.136 0-0.268-0.022-0.39-0.063l0.009 0.003c-0.285-0.064-0.527-0.219-0.699-0.433l-0.002-0.002c-0.171-0.212-0.276-0.485-0.277-0.781v-0l-1.578 0.577 0.109-0.433zM36.769 19.779c0.136 0.244 0.36 0.425 0.629 0.5l0.007 0.002c0.080 0.022 0.171 0.035 0.266 0.035 0.197 0 0.382-0.056 0.538-0.153l-0.004 0.003c0.253-0.205 0.425-0.493 0.486-0.813l0.275-1.039-1.939-0.525-0.274 1.039c-0.047 0.135-0.075 0.29-0.075 0.452 0 0.18 0.034 0.351 0.095 0.509l-0.003-0.010zM32.799 23.334l-0.291-0.225 1.716-2.279 3.191 2.441-1.658 2.21-0.292-0.225 1.401-1.863-1.144-0.871-1.253 1.667-0.286-0.219 1.281-1.667-1.184-0.906-1.482 1.939zM31.461 27.932l-0.818 0.046v-0.277l0.818-0.006-0.44-0.687 0.223-0.145 0.434 0.693 0.354-0.773 0.246 0.133-0.389 0.727 0.818-0.046v0.283h-0.829l0.44 0.686-0.223 0.145-0.434-0.693-0.378 0.75-0.24-0.139 0.417-0.698zM24.025 27.471l0.691 0.386c0.117-0.225 0.278-0.422 0.475-0.579 0.188-0.151 0.412-0.265 0.656-0.329l0.012-0.003c0.228-0.072 0.467-0.097 0.704-0.075 0.206 0.016 0.403 0.088 0.572 0.208 0.153 0.116 0.265 0.278 0.32 0.462 0.069 0.227 0.057 0.473-0.034 0.692-0.143 0.299-0.337 0.57-0.571 0.802 0.189 0.102 0.363 0.229 0.52 0.375 0.109 0.113 0.189 0.249 0.235 0.398 0.015 0.057 0.023 0.122 0.023 0.189 0 0.185-0.065 0.355-0.173 0.488l0.001-0.001c-0.151 0.218-0.373 0.377-0.633 0.443l-0.008 0.002c-0.229 0.088-0.481 0.088-0.71 0-0.205-0.091-0.357-0.269-0.41-0.485l-0.001-0.005c-0.023-0.071-0.037-0.153-0.037-0.238 0-0.123 0.028-0.24 0.079-0.344l-0.002 0.005c0.131-0.263 0.303-0.502 0.509-0.71l-1.378-0.773c-0.032 0.158-0.050 0.34-0.050 0.526 0 0.105 0.006 0.209 0.017 0.311l-0.001-0.013h-0.349c-0.004-0.058-0.007-0.125-0.007-0.193 0-0.289 0.044-0.569 0.126-0.831l-0.005 0.020-0.721-0.404 0.149-0.323zM25.019 28.048l1.516 0.848c0.194-0.188 0.357-0.407 0.479-0.65l0.006-0.014c0.063-0.167 0.063-0.352 0-0.519-0.054-0.203-0.203-0.363-0.396-0.432l-0.004-0.001c-0.109-0.038-0.235-0.061-0.366-0.061s-0.257 0.022-0.374 0.063l0.008-0.002c-0.399 0.108-0.72 0.382-0.889 0.742l-0.004 0.008 0.023 0.017zM27.17 30.355c0.045-0.076 0.072-0.167 0.072-0.264 0-0.058-0.009-0.114-0.027-0.166l0.001 0.004c-0.035-0.114-0.098-0.217-0.183-0.3-0.138-0.118-0.294-0.224-0.461-0.311l-0.014-0.006c-0.174 0.173-0.326 0.366-0.453 0.577-0.069 0.131-0.086 0.283-0.046 0.426 0.038 0.135 0.129 0.244 0.249 0.305l0.003 0.001c0.146 0.055 0.307 0.055 0.452 0 0.156-0.042 0.291-0.138 0.383-0.271l0.023 0.006zM17.051 31.919l0.080-4.039h0.406l-0.063 3.231 1.625-2.689h0.2l1.522 2.735 0.057-3.214h0.406l-0.074 4.039h-0.349l-1.682-3.018-1.779 2.96-0.349-0.006zM15.061 27.695c0.373 0.361 0.604 0.866 0.604 1.425 0 0.204-0.031 0.4-0.088 0.585l0.004-0.014c-0.099 0.37-0.288 0.688-0.543 0.94l-0 0c-0.246 0.244-0.559 0.422-0.908 0.505l-0.013 0.003c-0.147 0.035-0.316 0.055-0.489 0.055-0.221 0-0.435-0.033-0.636-0.093l0.016 0.004c-0.376-0.095-0.7-0.278-0.962-0.526l0.001 0.001c-0.251-0.242-0.436-0.551-0.528-0.898l-0.003-0.014c-0.039-0.154-0.062-0.33-0.062-0.511 0-0.207 0.029-0.407 0.084-0.596l-0.004 0.015c0.101-0.357 0.291-0.68 0.553-0.939 0.25-0.251 0.562-0.431 0.904-0.519 0.146-0.035 0.314-0.055 0.486-0.055 0.22 0 0.433 0.033 0.633 0.093l-0.015-0.004c0.363 0.093 0.697 0.28 0.967 0.543zM13.11 27.494c-0.28 0.066-0.535 0.21-0.738 0.415-0.211 0.211-0.361 0.477-0.434 0.767-0.080 0.289-0.080 0.594 0 0.883 0.067 0.281 0.211 0.537 0.417 0.738 0.215 0.213 0.481 0.366 0.772 0.445 0.291 0.074 0.596 0.074 0.887 0 0.28-0.070 0.537-0.213 0.743-0.415 0.21-0.213 0.36-0.478 0.435-0.767 0.080-0.291 0.080-0.598 0-0.889-0.077-0.291-0.225-0.54-0.423-0.739v0c-0.21-0.206-0.473-0.359-0.766-0.436l-0.012-0.003c-0.132-0.038-0.284-0.060-0.441-0.060s-0.309 0.022-0.452 0.063l0.012-0.003zM8.781 24.811l0.154 1.586c0.098 0.042 0.194 0.091 0.286 0.145l0.933 0.542 0.629-1.119 0.371 0.214-2.002 3.479-1.304-0.755c-0.386-0.199-0.686-0.52-0.854-0.912l-0.005-0.012c-0.044-0.124-0.070-0.268-0.070-0.417 0-0.252 0.073-0.487 0.199-0.685l-0.003 0.005c0.135-0.253 0.342-0.452 0.593-0.574l0.008-0.003c0.261-0.109 0.549-0.131 0.823-0.063l-0.166-1.697 0.406 0.266zM8.128 26.634c-0.277 0.072-0.504 0.25-0.64 0.486l-0.003 0.005c-0.086 0.148-0.137 0.327-0.137 0.516 0 0.103 0.015 0.203 0.043 0.298l-0.002-0.007c0.134 0.299 0.367 0.541 0.658 0.687l0.921 0.537 1.001-1.731-0.921-0.536c-0.233-0.178-0.528-0.285-0.848-0.285-0.026 0-0.051 0.001-0.077 0.002l0.004-0v0.029zM5.394 22.105l0.257-0.26 1.974 2.049-2.86 2.816-1.905-1.985 0.263-0.259 1.619 1.679 0.978-0.998-1.418-1.488 0.274-0.265 1.447 1.5 1.064-1.045-1.693-1.743zM1.144 19.837l0.137-0.797 0.269 0.041-0.154 0.819 0.761-0.283 0.091 0.254-0.772 0.266 0.634 0.542-0.183 0.208-0.611-0.577-0.143 0.819-0.275-0.052 0.16-0.819-0.766 0.277-0.086-0.225 0.766-0.271-0.634-0.537 0.189-0.207 0.618 0.542z"></path>
        </symbol>
    </defs>
</svg>